<svg id="SvgjsSvg1030" width="288" height="288" xmlns="http://www.w3.org/2000/svg" version="1.1" xmlns:xlink="http://www.w3.org/1999/xlink" xmlns:svgjs="http://svgjs.com/svgjs"><defs id="SvgjsDefs1031"></defs><g id="SvgjsG1032"><svg xmlns="http://www.w3.org/2000/svg" enable-background="new 0 0 1920 1080" viewBox="0 0 1920 1080" width="288" height="288"><polygon fill="#c9fc51" points="1211.9 332.5 1782 165 1367.9 391.8" class="color82d6f4 svgShape"></polygon><polygon fill="#b5e643" points="1782 165 1367.9 391.8 1434.4 533.5" class="color29abe2 svgShape"></polygon><polygon fill="#c9fc51" points="1782 165 1451.9 421.5 1584.6 603.7" class="color82d6f4 svgShape"></polygon><polygon fill="#5b6b36" points="1434.4 533.5 1451.9 421.5 1490.3 474.2" class="color0071bc svgShape"></polygon><path fill="none" stroke="#f0f0f0" stroke-miterlimit="10" stroke-width="10" d="M1390.5,557.4c0,0-2.5,2.5-7.2,6.9" class="colorStroke00a99d svgStroke"></path><path fill="none" stroke="#f0f0f0" stroke-dasharray="20.13 20.13" stroke-miterlimit="10" stroke-width="10" d="M1368.3,577.8c-62.6,55.1-247.4,199.7-416.4,156.1c-207.5-53.4-166.3-275.2-43.8-274.8S1105.5,673,1039.5,814			s-270,243-552.1,171c-229.3-58.5-419-299.7-466.8-364.9" class="colorStroke00a99d svgStroke"></path><path fill="none" stroke="#f0f0f0" stroke-miterlimit="10" stroke-width="10" d="M14.7,611.9c-3.8-5.3-5.7-8.2-5.7-8.2" class="colorStroke00a99d svgStroke"></path></svg></g></svg>